<svg width="680" height="680" viewBox="0 0 680 680" fill="none" xmlns="http://www.w3.org/2000/svg">
<g filter="url(#filter0_d_201_588)">
<circle cx="340" cy="333" r="317" fill="#F0F9FF"/>
</g>
<path d="M367.495 451C362.103 451 357.947 449.54 355.026 446.619C352.105 443.698 350.645 439.542 350.645 434.15V230.265C350.645 224.873 352.105 220.717 355.026 217.796C357.947 214.875 362.103 213.415 367.495 213.415H447.364C463.765 213.415 477.694 215.886 489.152 220.829C500.835 225.772 509.709 232.849 515.775 242.06C521.841 251.271 524.874 262.392 524.874 275.423C524.874 290.026 520.605 302.271 512.068 312.156C503.531 322.041 491.848 328.669 477.02 332.039V326.984C493.645 329.006 506.676 335.184 516.112 345.519C525.773 355.629 530.603 368.884 530.603 385.285C530.603 406.404 523.638 422.692 509.709 434.15C496.004 445.383 476.571 451 451.408 451H367.495ZM380.975 426.399H448.038C465.562 426.399 478.593 423.029 487.13 416.289C495.667 409.324 499.936 398.765 499.936 384.611C499.936 370.457 495.667 360.01 487.13 353.27C478.593 346.53 465.562 343.16 448.038 343.16H380.975V426.399ZM380.975 318.222H442.646C459.721 318.222 472.527 314.852 481.064 308.112C489.826 301.147 494.207 291.15 494.207 278.119C494.207 265.088 489.826 255.203 481.064 248.463C472.527 241.498 459.721 238.016 442.646 238.016H380.975V318.222Z" fill="#071126"/>
<path d="M204.92 443.24C200.227 443.24 196.6 441.96 194.04 439.4C191.48 436.627 190.2 432.787 190.2 427.88V228.52C190.2 223.4 191.48 219.56 194.04 217C196.6 214.44 200.227 213.16 204.92 213.16C209.827 213.16 213.56 214.44 216.12 217C218.68 219.56 219.96 223.4 219.96 228.52V313.96H350.52V228.52C350.52 223.4 351.8 219.56 354.36 217C356.92 214.44 360.653 213.16 365.56 213.16C370.253 213.16 373.88 214.44 376.44 217C379 219.56 380.28 223.4 380.28 228.52V427.88C380.28 432.787 379 436.627 376.44 439.4C373.88 441.96 370.253 443.24 365.56 443.24C360.653 443.24 356.92 441.96 354.36 439.4C351.8 436.627 350.52 432.787 350.52 427.88V339.24H219.96V427.88C219.96 432.787 218.68 436.627 216.12 439.4C213.773 441.96 210.04 443.24 204.92 443.24Z" fill="#071126"/>
<rect x="313" y="304" width="37.53" height="39" fill="#F0F9FF"/>
<defs>
<filter id="filter0_d_201_588" x="0.5" y="0.5" width="679" height="679" filterUnits="userSpaceOnUse" color-interpolation-filters="sRGB">
<feFlood flood-opacity="0" result="BackgroundImageFix"/>
<feColorMatrix in="SourceAlpha" type="matrix" values="0 0 0 0 0 0 0 0 0 0 0 0 0 0 0 0 0 0 127 0" result="hardAlpha"/>
<feMorphology radius="2" operator="dilate" in="SourceAlpha" result="effect1_dropShadow_201_588"/>
<feOffset dy="7"/>
<feGaussianBlur stdDeviation="10.25"/>
<feComposite in2="hardAlpha" operator="out"/>
<feColorMatrix type="matrix" values="0 0 0 0 0 0 0 0 0 0 0 0 0 0 0 0 0 0 0.25 0"/>
<feBlend mode="normal" in2="BackgroundImageFix" result="effect1_dropShadow_201_588"/>
<feBlend mode="normal" in="SourceGraphic" in2="effect1_dropShadow_201_588" result="shape"/>
</filter>
</defs>
</svg>
